# xmcd
#
# Track frame offsets:
#	150
#	8935
#	26471
#	45746
#	61798
#	76203
#	88747
#	104241
#	118232
#	133872
#	148746
#	165996
#	182221
#
# Disc length: 2734 seconds
#
# Revision: 0
# Processed by: cddbd v1.5.2PL0 Copyright (c) Steve Scherf et al.
# Submitted via: EZCDAudioConverter 6.0.8.1
#
DISCID=b20aac0d
DTITLE=Willian Lee - A Promessa
DYEAR=2017
DGENRE=Country
TTITLE0=A Promessa
TTITLE1=E Ele será chamado
TTITLE2=Contigo até o fim
TTITLE3=Algo novo
TTITLE4=Seu nome eu vou dizer
TTITLE5=Vencedor!
TTITLE6=Meu caminho
TTITLE7=Vem tocar meu coração!
TTITLE8=O nosso Deus pode tudo!
TTITLE9=A love song to Jesus!
TTITLE10=Ao Teu lado quero andar (just a closer walk with Thee)
TTITLE11=Quando Jesus estendeu a sua mão para mim.
TTITLE12=Amado Meu
EXTD=
EXTT0=
EXTT1=
EXTT2=
EXTT3=
EXTT4=
EXTT5=
EXTT6=
EXTT7=
EXTT8=
EXTT9=
EXTT10=
EXTT11=
EXTT12=
PLAYORDER=
